
        <svg xmlns="http://www.w3.org/2000/svg" xmlns:xlink="http://www.w3.org/1999/xlink" version="1.1" width="3274.605522802769" height="958.7787487251487" viewBox="0 0 3274.605522802769 958.7787487251487">
			
			<g transform="scale(13.730276140138452) translate(10, 10)">
				<defs id="SvgjsDefs3460"/><g id="SvgjsG3461" featureKey="G09qjj-0" transform="matrix(0.7360927864710417,0,0,0.7360927864710417,-3.9432563353865646,-11.965455787576984)" fill="#fff"><path xmlns="http://www.w3.org/2000/svg" d="M78.671,42.548c-1.316-2.749-3.625-4.821-6.5-5.835c-5.93-2.089-12.464,1.034-14.556,6.969  c-2.091,5.934,1.035,12.464,6.97,14.557c1.25,0.44,2.526,0.649,3.782,0.649c4.706,0,9.123-2.936,10.773-7.619  C80.154,48.395,79.987,45.298,78.671,42.548z M77.254,50.604c-1.725,4.895-7.114,7.474-12.004,5.748  c-4.895-1.726-7.473-7.111-5.748-12.005c1.362-3.863,5.004-6.284,8.886-6.284c1.035,0,2.088,0.173,3.119,0.536  c2.37,0.836,4.274,2.545,5.36,4.813C77.952,45.68,78.09,48.234,77.254,50.604z M94.358,30.015c-0.553,0-1,0.448-1,1V74.5  c-2.415-0.185-4.91-0.424-7.531-0.676l-1.747-0.166l-1.227-2.379c3.163-0.029,5.777-0.281,8.292-0.798  c0.465-0.096,0.799-0.505,0.799-0.979V25.927c0-0.552-0.447-1-1-1s-1,0.448-1,1v42.75c-2.409,0.434-4.977,0.622-8.122,0.605  l-0.821-1.592c2.954-0.295,5.208-0.965,7.001-2.083c0.294-0.183,0.472-0.503,0.472-0.849V17.259c0-0.377-0.212-0.722-0.548-0.892  c-0.338-0.17-0.74-0.137-1.044,0.086c-0.038,0.028-3.867,2.804-11,4.936c-1.98,0.59-4.38,0.992-6.92,1.418  c-6.465,1.085-13.749,2.307-18.619,7.127c-4.861-4.814-12.141-6.038-18.602-7.124c-2.546-0.428-4.951-0.832-6.935-1.424  c-7.101-2.121-10.967-4.91-11.005-4.938c-0.304-0.222-0.707-0.255-1.043-0.084c-0.336,0.17-0.548,0.515-0.548,0.891v47.398  c0,0.395,0.232,0.752,0.593,0.913c3.52,1.57,8.543,1.517,13.858,1.455c7.952-0.083,16.947-0.188,22.98,5.046  c0.186,0.183,0.438,0.286,0.701,0.286c0.065,0,0.132-0.006,0.197-0.02c0.207-0.041,0.392-0.146,0.531-0.295  c5.191-4.742,13.074-4.494,20.693-4.259c0.843,0.026,1.671,0.048,2.496,0.068l0.503,1.177c-7.639-0.367-15.523-0.532-23.735,4.339  c-0.422,0.248-0.904,0.247-1.32,0.001c-8.585-5.092-16.817-4.684-24.781-4.293c-4.612,0.229-9.377,0.464-14.159-0.396V25.927  c0-0.552-0.447-1-1-1s-1,0.448-1,1v43.575c0,0.475,0.334,0.884,0.799,0.979c5.298,1.089,10.465,0.834,15.459,0.588  c8.02-0.396,15.595-0.771,23.664,4.017c0.524,0.31,1.1,0.465,1.676,0.465c0.577,0,1.154-0.155,1.681-0.466  c8.049-4.773,15.598-4.411,23.592-4.016l0.84,1.964c-7.58-0.508-15.891-0.568-22.135,1.899c-0.02,0.007-0.04,0.014-0.06,0.021  c-0.482,0.189-0.739,0.716-0.593,1.213c0.034,0.116,0.05,0.213,0.05,0.306c0,0.962-1.761,1.399-3.396,1.399  c-1.623,0-3.369-0.438-3.369-1.399c0-0.101,0.011-0.178,0.034-0.246c0.178-0.505-0.074-1.06-0.571-1.258  c-8.385-3.362-20.456-2.208-32.13-1.094c-2.418,0.231-4.72,0.451-6.951,0.627V31.019c0-0.552-0.447-1-1-1s-1,0.448-1,1V75.58  c0,0.277,0.115,0.543,0.319,0.732c0.203,0.189,0.479,0.283,0.753,0.265c2.589-0.188,5.251-0.441,8.068-0.711  c10.58-1.011,22.53-2.152,30.479,0.687c0.052,2.05,2.099,3.319,5.368,3.319c3.29,0,5.349-1.272,5.396-3.327  c6.095-2.172,14.268-1.978,21.622-1.445l3.241,7.583c0.001,0.002,0.002,0.004,0.003,0.006c0.229,0.526,0.65,0.926,1.188,1.127  c0.24,0.089,0.487,0.134,0.734,0.134c0.309,0,0.614-0.069,0.9-0.206l2.751-1.309c0.514-0.246,0.896-0.679,1.079-1.217  c0.183-0.539,0.142-1.115-0.119-1.626l-1.971-3.822l0.466,0.045c3.023,0.29,5.879,0.563,8.652,0.758  c0.023,0.002,0.047,0.003,0.07,0.003c0.252,0,0.496-0.096,0.682-0.269c0.203-0.189,0.318-0.454,0.318-0.731V31.015  C95.358,30.463,94.911,30.015,94.358,30.015z M26.641,65.021c-4.779,0.051-9.311,0.104-12.429-1.042V19.075  c1.825,1.067,5.198,2.785,10.023,4.227c2.102,0.628,4.566,1.042,7.176,1.481c6.362,1.069,13.553,2.286,17.948,7.023  c-0.002,0.023-0.014,0.043-0.014,0.067v37.45C42.877,64.85,34.296,64.93,26.641,65.021z M51.346,69.277V31.873  c0-0.025-0.013-0.047-0.014-0.072c4.406-4.74,11.598-5.954,17.963-7.022c2.603-0.437,5.062-0.85,7.16-1.475  c4.825-1.442,8.195-3.159,10.021-4.225v45.103c-1.615,0.876-3.704,1.382-6.466,1.582l-0.865-1.676  c-0.227-0.444-0.657-0.724-1.121-0.784l-1.838-3.839c2.557-1.661,4.612-4.137,5.702-7.229c2.625-7.448-1.299-15.645-8.748-18.271  c-3.608-1.271-7.497-1.062-10.947,0.59c-3.451,1.652-6.052,4.549-7.323,8.158s-1.063,7.496,0.59,10.947  c1.652,3.45,4.549,6.051,8.158,7.323c1.569,0.553,3.171,0.815,4.748,0.815c1.215,0,2.412-0.164,3.569-0.463l1.901,3.97  c-0.097,0.16-0.161,0.337-0.191,0.521c-0.604-0.016-1.202-0.03-1.815-0.049C64.866,65.564,57.059,65.325,51.346,69.277z   M75.537,64.231l-1.69-3.529c0.198-0.082,0.393-0.171,0.587-0.261l1.682,3.515L75.537,64.231z M64.281,59.099  c-3.104-1.094-5.597-3.332-7.019-6.301c-1.421-2.969-1.602-6.313-0.507-9.418c1.094-3.104,3.331-5.597,6.301-7.019  c1.688-0.808,3.496-1.215,5.313-1.215c1.381,0,2.766,0.235,4.106,0.708c6.408,2.259,9.784,9.311,7.525,15.72  C77.742,57.981,70.692,61.354,64.281,59.099z M86.252,80.051l-0.933,0.579l-2.825,1.313c-0.024-0.009-0.042-0.025-0.052-0.049  l-6.654-15.567l1.814-0.863l7.761,15.046L86.252,80.051z"/></g><g id="SvgjsG3462" featureKey="0yvIkK-0" transform="matrix(1.1363228400830694,0,0,1.1363228400830694,84.18188342877504,8.454744410352792)" fill="#fff"><path d="M1.6 4.880000000000001 l1.2 0 l0 10.08 l4.58 -4.2 l1.76 0 l-4.78 4.24 l5.32 5 l-1.82 0 l-5.06 -4.88 l0 4.88 l-1.2 0 l0 -15.12 z M11.420000000000002 4.880000000000001 l1.2 0 l0 15.12 l-1.2 0 l0 -15.12 z M16.8 17.44 q0 0.76 0.61 1.24 t1.51 0.48 q1.62 0 2.41 -0.85 t0.79 -2.31 l0 -0.64 l-1.44 0 q-1.84 0 -2.86 0.56 t-1.02 1.52 z M19.520000000000003 10.52 q1.86 0 2.76 0.86 t0.92 2.4 l0 2.74 q0 2.24 0.18 3.48 l-1.12 0 q-0.12 -0.62 -0.12 -1.5 l-0.04 0 q-1 1.74 -3.22 1.74 q-1.5 0 -2.38 -0.74 t-0.9 -2 q0 -1.54 1.33 -2.32 t3.71 -0.78 l1.48 0 l0 -0.54 q0 -1.14 -0.7 -1.7 t-1.9 -0.56 q-1.6 0 -2.82 1.04 l-0.7 -0.82 q0.66 -0.64 1.63 -0.97 t1.89 -0.33 z M29.820000000000004 20.24 q-1.76 0 -2.64 -0.99 t-0.88 -3.03 l0 -5.46 l1.2 0 l0 5.4 q0 1.5 0.57 2.25 t1.75 0.75 q1.46 0 2.32 -1 t0.88 -2.82 l0 -4.58 l1.2 0 l0 6.74 q0.04 1.02 0.1 2.5 l-1.2 0 q-0.02 -1.14 -0.08 -1.62 l-0.06 0 q-0.4 0.86 -1.27 1.36 t-1.89 0.5 z M40.04 10.52 q2.34 0 3.24 1.74 l-1.08 0.64 q-0.68 -1.3 -2.16 -1.3 q-0.8 0 -1.39 0.43 t-0.59 1.05 t0.5 0.99 t1.74 0.59 q1.84 0.32 2.54 0.95 t0.7 1.77 q0 1.3 -0.93 2.08 t-2.43 0.78 q-2.64 -0.02 -3.7 -1.88 l1.06 -0.72 q0.34 0.7 1.11 1.11 t1.57 0.41 q0.92 0 1.52 -0.51 t0.6 -1.19 q0 -0.62 -0.49 -1.02 t-2.13 -0.72 q-1.42 -0.28 -2.14 -0.86 t-0.72 -1.68 q0 -1.18 0.9 -1.92 t2.28 -0.74 z M49.459999999999994 20.24 q-1.76 0 -2.64 -0.99 t-0.88 -3.03 l0 -5.46 l1.2 0 l0 5.4 q0 1.5 0.57 2.25 t1.75 0.75 q1.46 0 2.32 -1 t0.88 -2.82 l0 -4.58 l1.2 0 l0 6.74 q0.04 1.02 0.1 2.5 l-1.2 0 q-0.02 -1.14 -0.08 -1.62 l-0.06 0 q-0.4 0.86 -1.27 1.36 t-1.89 0.5 z M61.28 10.52 q0.34 0 0.7 0.1 l-0.14 1.18 q-0.22 -0.08 -0.48 -0.08 q-1.46 0 -2.23 0.9 t-0.77 2.34 l0 5.04 l-1.2 0 l0 -6.74 q0 -0.2 -0.1 -2.5 l1.2 0 q0.04 1.38 0.08 1.62 q1.04 -1.86 2.94 -1.86 z M71.06 14.6 q0 -1.26 -0.94 -2.13 t-2.28 -0.87 q-1.3 0 -2.24 0.87 t-1.1 2.13 l6.56 0 z M67.92 10.52 q1.92 0 3.12 1.24 t1.22 3.2 l0 0.72 l-7.76 0 q0.08 1.56 1.03 2.51 t2.47 0.97 q0.94 0 1.79 -0.45 t1.31 -1.19 l0.88 0.74 q-1.3 1.98 -4 1.98 q-2.12 -0.02 -3.39 -1.38 t-1.29 -3.5 q0 -2.08 1.31 -3.45 t3.31 -1.39 z M79.34 10.52 q1.8 0 2.65 0.97 t0.87 3.05 l0 5.46 l-1.2 0 l0 -5.4 q0 -1.54 -0.57 -2.27 t-1.75 -0.73 q-1.46 0 -2.32 1.01 t-0.88 2.81 l0 4.58 l-1.2 0 l0 -6.74 q-0.02 -0.58 -0.1 -2.5 l1.2 0 q0.04 1.58 0.08 1.62 l0.06 0 q0.4 -0.84 1.27 -1.35 t1.89 -0.51 z M86.84 17.44 q0 0.76 0.61 1.24 t1.51 0.48 q1.62 0 2.41 -0.85 t0.79 -2.31 l0 -0.64 l-1.44 0 q-1.84 0 -2.86 0.56 t-1.02 1.52 z M89.56 10.52 q1.86 0 2.76 0.86 t0.92 2.4 l0 2.74 q0 2.24 0.18 3.48 l-1.12 0 q-0.12 -0.62 -0.12 -1.5 l-0.04 0 q-1 1.74 -3.22 1.74 q-1.5 0 -2.38 -0.74 t-0.9 -2 q0 -1.54 1.33 -2.32 t3.71 -0.78 l1.48 0 l0 -0.54 q0 -1.14 -0.7 -1.7 t-1.9 -0.56 q-1.6 0 -2.82 1.04 l-0.7 -0.82 q0.66 -0.64 1.63 -0.97 t1.89 -0.33 z M97.26 15.379999999999999 q0 1.58 1.12 2.66 t2.74 1.12 q1.62 0 2.63 -1.07 t1.03 -2.71 q0 -1.6 -1 -2.68 t-2.68 -1.1 q-1.62 0 -2.72 1.1 t-1.12 2.68 z M101.12 10.52 q2.12 0 3.48 1.37 t1.38 3.49 q0 2.12 -1.36 3.48 t-3.5 1.38 q-1.18 0 -2.19 -0.5 t-1.51 -1.36 l-0.04 0 l0 6.18 l-1.2 0 l0 -13.8 l1.2 0 l0 1.62 l0.04 0 q0.48 -0.84 1.5 -1.35 t2.2 -0.51 z M109.48 15.379999999999999 q0 1.58 1.12 2.66 t2.74 1.12 q1.62 0 2.63 -1.07 t1.03 -2.71 q0 -1.6 -1 -2.68 t-2.68 -1.1 q-1.62 0 -2.72 1.1 t-1.12 2.68 z M113.34 10.52 q2.12 0 3.48 1.37 t1.38 3.49 q0 2.12 -1.36 3.48 t-3.5 1.38 q-1.18 0 -2.19 -0.5 t-1.51 -1.36 l-0.04 0 l0 6.18 l-1.2 0 l0 -13.8 l1.2 0 l0 1.62 l0.04 0 q0.48 -0.84 1.5 -1.35 t2.2 -0.51 z"/></g>
			</g>
		</svg>
	